<svg version="1.1" id="Layer_1" xmlns="http://www.w3.org/2000/svg" xmlns:xlink="http://www.w3.org/1999/xlink" x="0px" y="0px"
	 width="100%" viewBox="0 0 468 534" enable-background="new 0 0 468 534" xml:space="preserve">
<path fill="#FFFFFF" opacity="1.000000" stroke="none" 
	d="
M1.000000,218.000000 
	C1.000000,145.351334 1.000000,73.202652 1.000000,1.026990 
	C156.943115,1.026990 312.886230,1.026990 468.914673,1.026990 
	C468.914673,178.898682 468.914673,356.797424 468.914673,534.848083 
	C313.000122,534.848083 157.000076,534.848083 1.000000,534.848083 
	C1.000000,429.447052 1.000000,323.973541 1.000000,218.000000 
M131.000000,62.500000 
	C131.000000,101.317711 130.904770,140.135880 131.089355,178.952698 
	C131.121918,185.797928 131.816086,192.732574 133.075027,199.463150 
	C138.137466,226.528137 152.205093,248.054123 174.554459,263.964355 
	C199.761093,281.908600 228.034271,287.174866 257.906952,280.725220 
	C280.166931,275.919189 299.024689,264.455292 314.005859,246.674988 
	C331.184998,226.286072 338.940216,202.830276 338.979370,176.538330 
	C339.051575,128.057938 339.002258,79.577347 338.998352,31.096844 
	C338.997437,19.808376 332.290466,13.004401 321.138306,13.003111 
	C263.328217,12.996425 205.518127,12.996209 147.708038,13.003635 
	C137.766586,13.004913 131.023392,19.674488 131.004608,29.512873 
	C130.984253,40.175213 131.000000,50.837620 131.000000,62.500000 
M284.214264,379.290894 
	C273.707764,384.260376 268.077545,392.213104 267.921082,404.171936 
	C267.735535,418.351105 278.115295,428.309326 287.618500,429.887085 
	C303.742004,432.564026 315.681183,425.224731 319.520294,410.993561 
	C322.973663,398.192352 317.497864,385.963287 305.560211,380.253326 
	C298.930145,377.082031 291.969696,377.515411 284.214264,379.290894 
M149.017197,379.032349 
	C142.397308,377.652130 135.815018,377.148346 129.382477,379.911774 
	C115.191238,386.008392 111.062408,400.535858 115.475212,413.837463 
	C119.681557,426.516754 134.997711,433.828766 147.983566,429.401978 
	C164.132584,423.896790 168.618164,410.807037 165.207275,395.795837 
	C163.332748,387.546082 157.184753,382.701508 149.017197,379.032349 
M107.684624,393.187225 
	C105.221931,387.903290 101.813614,383.313934 96.268791,381.176147 
	C85.439392,377.000946 74.191986,379.690887 63.210098,379.045715 
	C63.210098,382.356079 63.210098,384.983093 63.210098,387.610077 
	C63.760887,387.458160 64.311676,387.306213 64.862473,387.154266 
	C65.574951,388.713318 66.875580,390.261536 66.904427,391.833130 
	C67.090904,401.995941 66.992912,412.163849 67.002594,422.330078 
	C67.008598,428.640747 68.302727,430.052765 74.791954,429.949524 
	C79.551743,429.873840 84.314507,429.439392 89.057343,428.974945 
	C95.675713,428.326813 101.233292,425.629822 105.003479,419.930206 
	C110.387665,411.790649 109.693840,402.929840 107.684624,393.187225 
M360.521606,414.019348 
	C359.411774,411.764465 358.301941,409.509552 357.215454,407.302063 
	C362.898224,403.489563 365.468445,397.454132 363.906464,390.439972 
	C362.644806,384.774597 358.745483,379.994263 353.275604,379.399292 
	C343.979828,378.388275 334.494415,379.121124 325.225098,379.121124 
	C325.225098,382.387085 325.225098,385.007874 325.225098,387.623535 
	C326.958832,387.937988 328.478485,388.213593 330.235016,388.532196 
	C330.235016,402.484985 330.235016,416.091431 330.235016,429.696167 
	C333.618439,429.696167 336.681396,429.696167 340.164154,429.696167 
	C340.164154,423.304596 340.164154,417.207214 340.164154,411.457428 
	C345.682556,409.510162 348.139526,412.347168 349.916351,416.522980 
	C350.805298,418.612183 351.929016,420.601562 352.948364,422.635162 
	C356.405884,429.532806 358.469025,430.581299 367.461060,429.468445 
	C366.880829,426.599518 366.724640,423.578217 365.606812,420.968903 
	C364.604156,418.628326 362.543701,416.740814 360.521606,414.019348 
M176.412064,420.936523 
	C185.934631,434.908691 210.849197,431.815643 217.825073,421.204376 
	C216.148270,418.895050 214.437195,416.538544 212.747101,414.210938 
	C210.351288,415.743652 208.154602,417.388123 205.753586,418.641083 
	C197.931839,422.722809 191.867996,421.678253 185.937241,415.421875 
	C181.369263,410.603088 180.441833,400.784027 184.025375,394.854767 
	C187.756836,388.680786 193.560760,387.333313 200.195129,388.012390 
	C204.883881,388.492310 207.434799,391.064789 207.248352,395.635254 
	C210.435638,395.635254 213.165909,395.635254 215.866821,395.635254 
	C216.289474,384.235809 215.684860,383.080597 207.171082,379.704865 
	C205.401230,379.003113 203.483612,378.585297 201.594528,378.287628 
	C190.830078,376.591553 179.298126,380.434052 174.082611,390.806732 
	C169.005600,400.903992 169.812836,410.867279 176.412064,420.936523 
M391.067780,398.573975 
	C389.765717,397.921844 388.024658,397.591278 387.258972,396.546204 
	C385.934021,394.737823 385.213898,392.486328 384.240051,390.420746 
	C386.645905,389.327698 389.147308,387.221954 391.429718,387.437256 
	C393.550049,387.637329 395.436798,390.313293 397.426392,391.899139 
	C397.215332,392.192383 397.004303,392.485596 396.793274,392.778839 
	C399.743866,392.778839 402.694489,392.778839 405.610870,392.778839 
	C406.501160,384.500031 404.390442,381.340668 396.335205,378.814148 
	C388.289459,376.290558 379.278534,379.197998 375.785461,384.584351 
	C369.701172,393.966309 375.251740,401.772430 381.928436,405.414978 
	C385.601501,407.418884 389.635773,408.839508 393.070709,411.167206 
	C394.756134,412.309357 396.797180,415.488312 396.272919,416.731873 
	C395.477814,418.617920 392.702820,419.866760 390.533661,420.885132 
	C389.580627,421.332489 387.922272,420.807495 386.802887,420.269165 
	C383.656860,418.756165 380.624451,417.006866 377.498657,415.324554 
	C375.800964,417.515686 373.922852,419.939667 372.087372,422.308624 
	C378.360504,430.467072 387.102173,430.777771 395.901825,429.840210 
	C401.630981,429.229767 406.493958,422.229309 407.090973,416.505157 
	C407.968048,408.095551 401.194946,401.999237 391.067780,398.573975 
M230.011383,389.554993 
	C232.505280,388.868561 234.999176,388.182129 238.171341,387.309021 
	C238.171341,402.329926 238.171341,416.046356 238.171341,429.673492 
	C241.670822,429.673492 244.731400,429.673492 248.201004,429.673492 
	C248.201004,415.632965 248.201004,401.914581 248.201004,388.159973 
	C251.245132,388.159973 253.862106,388.159973 256.668488,388.159973 
	C256.914276,389.474701 257.138489,390.673950 257.318207,391.635315 
	C260.432007,391.635315 263.157837,391.635315 266.000000,391.635315 
	C266.000000,389.614838 265.888580,387.948914 266.019897,386.302368 
	C266.507263,380.190979 264.867706,378.743195 258.687958,378.931702 
	C249.883865,379.200287 241.065475,379.000000 232.253204,379.000000 
	C220.536484,379.000000 220.533386,379.000153 221.090530,390.931152 
	C221.103455,391.207733 221.404877,391.470825 222.052032,392.515564 
	C224.509613,391.880646 227.248718,391.172943 230.011383,389.554993 
M215.990555,353.233154 
	C215.990555,349.264893 215.990555,345.296631 215.990555,341.345703 
	C221.459457,341.133545 221.459457,341.133545 225.052307,348.338867 
	C228.668198,355.590393 228.748169,355.633087 236.825317,354.505432 
	C236.825317,352.583405 236.825317,350.634491 236.825317,348.685547 
	C234.538071,347.136444 233.116257,345.059662 231.545502,343.102356 
	C229.135254,340.098969 230.912460,338.243073 232.587326,335.493530 
	C236.313095,329.377075 235.485550,319.052765 226.231293,317.363007 
	C219.397247,316.115143 212.152222,317.117920 205.202698,317.117920 
	C205.202698,319.678162 205.202698,321.632080 205.202698,323.586029 
	C205.741714,323.435760 206.280731,323.285492 206.819748,323.135223 
	C207.546463,324.684570 208.866455,326.220520 208.901871,327.785522 
	C209.103912,336.713165 208.999924,345.647736 208.999924,355.299377 
	C211.635040,354.869415 213.775330,354.520203 215.990555,353.233154 
M244.089981,354.563782 
	C249.224670,354.709198 254.358688,354.941254 259.494202,354.980835 
	C268.437683,355.049744 268.442688,354.999695 267.900208,345.938019 
	C267.883972,345.666870 267.539093,345.415436 267.164154,344.905426 
	C265.373474,345.046387 262.208679,344.516113 261.673065,345.466949 
	C258.686340,350.768921 254.575653,346.708008 251.230347,348.108307 
	C251.230347,344.614960 251.230347,341.999603 251.230347,338.950073 
	C255.194504,338.950073 258.947906,338.950073 262.724213,338.950073 
	C262.724213,336.759247 262.724213,335.029236 262.724213,332.855621 
	C258.714630,332.855621 254.964539,332.855621 251.320587,332.855621 
	C251.320587,329.648285 251.320587,326.911591 251.320587,323.893158 
	C253.936020,324.053192 257.713013,323.420898 258.255219,324.466339 
	C260.652405,329.088348 263.948639,326.272766 266.997284,326.683990 
	C266.997284,324.605164 267.491547,322.719574 266.869965,321.334839 
	C266.122681,319.669983 264.483276,317.266541 263.130737,317.199890 
	C255.203888,316.809387 247.247986,317.008148 239.156265,317.008148 
	C239.156265,319.457153 239.156265,321.406097 239.156265,323.444275 
	C240.472260,323.857574 241.757248,324.261108 243.429718,324.786377 
	C243.429718,334.642578 243.429718,344.273834 244.089981,354.563782 
M186.695999,342.011932 
	C188.693741,342.007965 190.731598,341.746094 192.681580,342.049316 
	C198.090836,342.890472 203.119186,338.611908 203.950043,330.485809 
	C204.607574,324.054932 200.192596,317.537323 194.529465,317.130188 
	C187.791061,316.645752 180.991211,317.016144 173.926132,317.016144 
	C174.064316,319.523895 173.625992,322.910400 174.369064,323.193237 
	C178.816513,324.886139 176.832321,328.403992 176.913422,331.064178 
	C177.154800,338.982605 177.000000,346.913116 177.000000,354.641785 
	C180.054703,354.641785 182.453400,354.641785 184.599625,354.641785 
	C185.008057,350.211151 185.381836,346.156403 186.695999,342.011932 
M282.000000,347.542419 
	C282.000000,345.777069 282.000000,344.011719 282.000000,342.000000 
	C285.075806,342.000000 287.551605,342.017548 290.027069,341.996521 
	C296.046509,341.945404 300.701141,337.343597 300.999664,331.169067 
	C301.378723,323.328796 297.616089,317.510864 291.216125,317.102051 
	C284.624146,316.680969 277.984314,317.008545 270.842773,317.008545 
	C271.083008,319.541016 270.835480,323.215302 271.549652,323.412811 
	C275.400635,324.477966 273.897400,327.311951 273.935486,329.385193 
	C274.090485,337.820984 274.000000,346.261261 274.000000,354.706909 
	C276.935272,354.706909 279.331268,354.706909 282.000000,354.706909 
	C282.000000,352.447174 282.000000,350.471710 282.000000,347.542419 
M180.000809,461.211029 
	C181.706787,457.189026 182.260712,461.306519 182.900482,461.794800 
	C185.106384,463.478210 185.352234,467.975250 189.999237,466.655182 
	C189.999237,461.940521 189.880234,457.461670 190.038300,452.992615 
	C190.156769,449.643372 188.642456,449.511749 185.939636,450.537506 
	C185.939636,452.874390 185.939636,455.121765 185.939636,457.495117 
	C182.209183,455.532898 182.200638,448.934631 176.000656,450.302063 
	C176.000656,454.966766 176.132828,459.445190 175.956329,463.911438 
	C175.828934,467.134705 177.189178,467.535309 180.000046,466.498657 
	C180.000046,464.977844 180.000046,463.502289 180.000809,461.211029 
M288.374176,459.998810 
	C289.399872,459.058624 290.425568,458.118408 292.379578,456.327209 
	C287.988861,456.030670 285.521362,455.864044 283.053864,455.697418 
	C283.057861,455.131317 283.061859,454.565247 283.065857,453.999176 
	C285.064758,453.999176 287.069672,453.900177 289.061218,454.021271 
	C292.456909,454.227692 292.354584,452.522491 291.668152,450.375061 
	C287.230408,450.375061 283.171112,450.375061 279.221405,450.375061 
	C279.221405,456.028992 279.221405,461.305603 279.221405,466.773560 
	C283.519318,466.773560 287.594971,466.773560 291.595612,466.773560 
	C293.090546,462.745880 290.590881,463.027954 288.109619,462.949097 
	C286.336731,462.892700 284.578979,462.361481 282.814453,462.042175 
	C282.915588,461.434052 283.016754,460.825928 283.117889,460.217773 
	C284.565674,460.145172 286.013428,460.072571 288.374176,459.998810 
M250.998993,452.697235 
	C251.143890,448.399963 248.284210,450.424255 245.538986,449.895416 
	C246.079056,454.556396 246.230957,458.628204 247.104370,462.538849 
	C247.813904,465.715820 250.206985,467.252380 253.732300,467.054626 
	C257.155304,466.862640 259.919159,466.050476 260.342468,462.149872 
	C260.762329,458.280975 260.941284,454.385925 261.235077,450.376831 
	C259.131805,450.376831 257.638123,450.376831 255.991425,450.376831 
	C255.991425,453.891724 256.160614,457.050262 255.890762,460.170868 
	C255.807175,461.137451 254.530304,462.000854 253.799744,462.911530 
	C252.868683,461.973511 251.357269,461.156525 251.130951,460.071503 
	C250.699738,458.003998 251.002121,455.783508 250.998993,452.697235 
M196.022766,459.522125 
	C197.739288,460.250610 199.455811,460.979065 201.172333,461.707550 
	C200.996613,462.141205 200.820892,462.574860 200.645172,463.008514 
	C199.644669,462.745453 198.626175,462.535522 197.648590,462.204681 
	C196.617096,461.855591 195.624634,461.391174 193.167831,460.383453 
	C193.896774,462.943909 193.853256,465.158630 194.818100,465.762726 
	C198.623459,468.145111 203.702576,467.356079 205.133972,464.426880 
	C208.817245,456.889435 201.368454,457.387451 197.746170,455.132935 
	C197.926086,454.772156 198.106018,454.411377 198.285934,454.050598 
	C200.186905,454.535950 202.087860,455.021301 204.151138,455.548096 
	C204.713089,454.410065 205.254257,453.314087 205.861816,452.083710 
	C201.823227,450.054382 197.916885,448.469330 194.521255,452.194611 
	C192.551834,454.355255 192.548264,457.084503 196.022766,459.522125 
M150.937759,339.342957 
	C150.696350,336.800812 151.387894,333.146851 149.994446,331.977600 
	C147.914291,330.231995 144.365173,330.236908 141.328156,329.468597 
	C141.328156,334.430634 141.328156,338.157471 141.328156,342.886505 
	C144.764526,341.802551 147.615234,340.903351 150.937759,339.342957 
M235.000931,464.270844 
	C234.784180,468.589844 237.682007,466.588440 240.018234,467.014801 
	C240.018234,462.475922 240.018234,458.398163 240.018234,454.320404 
	C240.356140,454.516876 240.694046,454.713379 241.031952,454.909851 
	C242.170532,453.657227 243.309113,452.404572 245.298553,450.215851 
	C239.470169,450.215851 235.390457,450.215851 231.310760,450.215851 
	C231.034241,450.592743 230.757736,450.969635 230.481216,451.346497 
	C231.878311,452.638000 233.275406,453.929504 235.000076,455.523834 
	C235.000076,457.703308 235.000076,460.518005 235.000931,464.270844 
M331.572510,330.000732 
	C325.801605,330.206085 327.024963,334.529510 327.052094,337.945190 
	C327.076630,341.040253 329.122498,342.031372 332.003479,342.031311 
	C334.887604,342.031250 336.924652,341.031738 336.948669,337.938263 
	C336.975220,334.520355 338.192047,330.199188 331.572510,330.000732 
M272.069214,454.895264 
	C272.895172,452.812439 279.440155,455.814575 276.258179,450.175568 
	C271.993774,450.175568 267.723175,450.175568 263.538116,450.175568 
	C261.118805,455.600128 266.585388,453.081055 268.109619,454.830780 
	C268.109619,458.689941 268.109619,462.626678 268.109619,466.563416 
	C268.526703,466.852081 268.943787,467.140717 269.360870,467.429382 
	C270.240204,466.375031 271.722809,465.402344 271.878723,464.250092 
	C272.253143,461.483582 272.004913,458.632812 272.069214,454.895264 
M216.000000,458.613861 
	C216.068161,457.162842 216.136337,455.711823 216.202271,454.308258 
	C220.795914,453.810455 220.795914,453.810455 220.466843,450.242126 
	C216.060776,450.242126 211.652618,450.242126 207.244461,450.242126 
	C206.979141,450.745667 206.713821,451.249207 206.448517,451.752716 
	C208.119461,452.831940 209.790421,453.911163 212.000000,455.338287 
	C212.000000,457.171295 211.991638,459.797699 212.001846,462.424011 
	C212.019028,466.838898 212.024002,466.838867 215.715424,466.442810 
	C215.798889,466.133850 215.949707,465.826050 215.954849,465.515778 
	C215.987717,463.528748 215.988602,461.541168 216.000000,458.613861 
M125.076271,341.958191 
	C129.129517,338.492432 129.192383,337.331177 126.160324,334.904846 
	C126.444237,333.322052 126.655533,332.144073 126.866829,330.966125 
	C124.423378,330.974518 121.036896,330.000183 119.760666,331.224884 
	C117.912254,332.998688 118.318810,336.124512 121.612328,337.387878 
	C120.453438,337.992523 119.247849,338.621552 118.042252,339.250580 
	C118.050323,339.684662 118.058403,340.118774 118.066483,340.552856 
	C120.132225,341.033569 122.197968,341.514282 125.076271,341.958191 
M112.857399,333.994629 
	C112.403214,333.865967 111.949028,333.737335 110.622459,333.361633 
	C112.399696,333.181793 113.369919,333.268005 114.185997,332.953796 
	C115.178505,332.571655 116.041145,331.852234 116.959953,331.278717 
	C116.066856,330.852753 115.201134,330.149963 114.274971,330.058350 
	C112.347534,329.867737 110.388107,330.000763 108.224052,330.000763 
	C108.224052,334.124908 108.224052,337.846527 108.224052,341.989960 
	C110.690201,341.989960 112.969604,342.073883 115.235077,341.933289 
	C115.830254,341.896332 116.382278,341.163971 116.954109,340.750946 
	C116.376411,340.170349 115.887779,339.266724 115.202126,339.077667 
	C113.851227,338.705170 112.391037,338.729095 110.976044,338.589081 
	C111.493568,337.416199 111.892334,337.131287 112.325508,337.062317 
	C112.974152,336.958984 113.678040,337.129303 114.304001,336.969757 
	C116.778694,336.338867 116.573402,335.372009 112.857399,333.994629 
M324.995239,334.287628 
	C323.394409,332.859467 321.990753,330.859375 320.119904,330.214417 
	C318.970093,329.817963 317.105804,331.493744 315.562317,332.239044 
	C315.761719,332.757202 315.961090,333.275360 316.160492,333.793518 
	C317.632843,333.924072 319.105225,334.054596 320.724396,334.198151 
	C318.758423,336.661774 317.071350,338.775879 314.641327,341.821014 
	C319.210693,341.821014 321.990509,341.821014 326.047913,341.821014 
	C324.480042,340.154022 323.608795,339.227692 322.628418,338.185364 
	C323.218292,337.398773 324.091675,336.234161 324.995239,334.287628 
M172.000000,457.538574 
	C171.999756,456.045959 171.880844,454.541870 172.023453,453.063019 
	C172.340790,449.772156 170.716324,449.611572 168.000748,450.406708 
	C168.000748,455.041962 168.143494,459.505157 167.953659,463.954132 
	C167.812714,467.257416 169.320419,467.365814 172.000000,466.604828 
	C172.000000,463.767487 172.000000,461.133728 172.000000,457.538574 
M224.000793,452.771484 
	C224.000793,457.386505 224.000793,462.001526 224.000793,466.616547 
	C224.483353,466.885498 224.965912,467.154449 225.448456,467.423431 
	C226.298645,466.347443 227.814316,465.311859 227.882568,464.188385 
	C228.161743,459.593201 227.999023,454.971161 227.999023,448.803497 
	C225.999161,450.321716 225.003448,451.077606 224.000793,452.771484 
M129.935898,330.058136 
	C129.637527,330.560944 129.339157,331.063751 129.040802,331.566559 
	C133.508423,333.758514 131.424301,338.120728 132.285660,342.097137 
	C133.564117,341.806793 135.538223,341.787781 135.688324,341.254974 
	C136.694000,337.685150 137.311401,334.005951 138.127319,330.006500 
	C136.101135,330.006500 133.470352,330.006500 129.935898,330.058136 
M348.000153,338.522156 
	C348.434174,341.888489 348.434174,341.888489 351.684204,341.350983 
	C351.684204,337.591858 351.684204,333.855560 351.684204,330.131866 
	C345.759521,330.058258 345.793701,330.044037 347.922394,335.162903 
	C348.219177,335.876556 347.987183,336.810089 348.000153,338.522156 
M339.710327,330.796753 
	C339.284393,331.111572 338.858429,331.426392 338.432465,331.741180 
	C341.028290,334.301270 341.249115,337.519501 341.170197,340.904633 
	C341.161407,341.281433 342.634796,341.692749 343.827576,342.292633 
	C343.827576,337.754059 343.827576,334.017059 343.827576,330.064606 
	C342.527313,330.124176 341.408447,330.175446 339.710327,330.796753 
z"/>
<path fill="#0C4D8A" opacity="1.000000" stroke="none" 
	d="
M131.000000,62.000000 
	C131.000000,50.837620 130.984253,40.175213 131.004608,29.512873 
	C131.023392,19.674488 137.766586,13.004913 147.708038,13.003635 
	C205.518127,12.996209 263.328217,12.996425 321.138306,13.003111 
	C332.290466,13.004401 338.997437,19.808376 338.998352,31.096844 
	C339.002258,79.577347 339.051575,128.057938 338.979370,176.538330 
	C338.940216,202.830276 331.184998,226.286072 314.005859,246.674988 
	C299.024689,264.455292 280.166931,275.919189 257.906952,280.725220 
	C228.034271,287.174866 199.761093,281.908600 174.554459,263.964355 
	C152.205093,248.054123 138.137466,226.528137 133.075027,199.463150 
	C131.816086,192.732574 131.121918,185.797928 131.089355,178.952698 
	C130.904770,140.135880 131.000000,101.317711 131.000000,62.000000 
M214.849686,214.372665 
	C214.233124,212.438370 213.100403,210.509048 213.081772,208.569016 
	C212.934677,193.241379 213.000000,177.911728 213.000000,162.582687 
	C213.000000,159.142273 213.000000,155.701874 213.000000,152.315369 
	C188.356415,152.315369 164.297424,152.315369 140.000000,152.315369 
	C140.000000,163.272751 139.747543,173.924744 140.098297,184.556824 
	C140.296539,190.565994 140.701767,196.769913 142.361694,202.495316 
	C150.788208,231.559723 168.233139,253.156799 196.030472,266.047882 
	C214.736130,274.722717 234.344131,277.226562 254.176895,272.705261 
	C284.051056,265.894775 306.551575,248.560928 320.390228,220.961624 
	C325.103760,211.561050 328.833221,201.549622 329.017395,190.781143 
	C329.237000,177.940063 329.069122,165.092377 329.069122,152.338531 
	C304.976288,152.338531 280.583771,152.338531 256.000000,152.338531 
	C256.000000,170.990646 255.892517,189.306000 256.081970,207.618271 
	C256.124817,211.759872 254.526352,214.704926 251.935898,217.633011 
	C247.817139,222.288696 243.771347,227.036011 240.055557,232.013947 
	C235.851807,237.645569 233.316177,237.867477 228.846466,232.329361 
	C224.227509,226.606369 219.626328,220.869019 214.849686,214.372665 
M251.000107,147.382538 
	C250.782104,150.160538 251.289780,152.059906 254.998032,150.365204 
	C254.998032,132.477936 254.963303,114.513252 255.032166,96.548958 
	C255.043671,93.550049 253.548706,92.912582 250.965668,92.971237 
	C246.378632,93.075409 241.787491,93.000496 237.353760,93.000496 
	C237.353760,82.608360 237.353760,72.880508 237.353760,62.999794 
	C244.358795,62.999794 251.015488,63.126362 257.660126,62.899529 
	C259.094177,62.850574 260.484802,61.528477 261.895416,60.792816 
	C260.513214,60.195286 259.135193,59.089630 257.748169,59.078232 
	C242.593231,58.953724 227.436523,58.954182 212.281555,59.076950 
	C210.884766,59.088268 209.496704,60.175461 208.104584,60.763073 
	C209.505295,61.508644 210.884567,62.846432 212.310394,62.898052 
	C218.745041,63.131016 225.192856,62.999786 231.727951,62.999786 
	C231.727951,73.224922 231.727951,82.950508 231.727951,93.000175 
	C227.162766,93.000175 222.853302,93.173927 218.565231,92.945602 
	C215.088486,92.760475 213.893661,93.997131 213.935455,97.519859 
	C214.095444,111.008430 214.000046,124.500038 214.000000,137.990509 
	C213.999985,142.272369 214.000000,146.554230 214.000000,150.606827 
	C217.829605,151.814072 218.048340,149.962265 218.035400,147.407593 
	C217.961929,132.918213 217.999939,118.428246 218.000000,103.938477 
	C218.000015,102.017883 218.000000,100.097282 218.000000,98.361984 
	C229.417130,98.361984 240.147186,98.361984 250.786713,98.361984 
	C250.786713,102.341141 250.786713,105.956711 250.786713,110.011200 
	C246.838486,110.011200 243.091934,110.011200 239.248077,110.011200 
	C239.248077,111.862732 239.248077,113.256813 239.248077,115.098389 
	C243.225555,115.098389 246.979446,115.098389 250.694901,115.098389 
	C250.694901,118.289413 250.694901,121.017784 250.694901,124.163383 
	C244.970551,124.163383 239.545883,124.163383 234.121201,124.163383 
	C233.980118,124.900047 233.839035,125.636711 233.697952,126.373367 
	C238.617126,130.439957 245.583466,126.193214 250.789505,128.634567 
	C250.789505,131.335541 250.789505,133.951706 250.789505,137.010620 
	C246.842941,137.010620 243.095078,137.010620 239.247208,137.010620 
	C239.247208,138.856110 239.247208,140.250977 239.247208,142.095535 
	C243.224823,142.095535 246.979691,142.095535 251.000000,142.095535 
	C251.000000,143.850357 251.000000,145.154343 251.000107,147.382538 
M238.000000,165.508392 
	C238.000000,161.076126 238.000000,156.643860 238.000000,152.328430 
	C235.338837,152.328430 233.279709,152.328430 231.115295,152.328430 
	C231.115295,167.269226 231.115295,181.882065 231.115295,196.251343 
	C233.408691,196.251343 235.610016,196.251343 238.000000,196.251343 
	C238.000000,186.454254 238.000000,176.479645 238.000000,165.508392 
M247.407639,212.037537 
	C244.572922,210.020493 241.587067,208.181641 238.943481,205.939255 
	C235.937836,203.389801 233.523834,202.878036 230.256668,205.825104 
	C227.676407,208.152573 224.243088,209.534363 220.947586,211.478348 
	C223.423965,214.639832 225.694565,217.803818 228.251465,220.716507 
	C230.194351,222.929718 239.255020,222.604080 241.096909,220.350372 
	C243.146072,217.843048 245.002258,215.177994 247.407639,212.037537 
M219.000000,161.540375 
	C219.000000,175.842316 219.000000,190.144257 219.000000,204.349152 
	C224.197067,203.447128 224.096283,200.030075 224.039047,196.401566 
	C223.913223,188.426758 224.000000,180.448593 224.000000,172.471802 
	C224.000000,165.709656 224.000000,158.947525 224.000000,151.924881 
	C222.009811,152.065201 220.614258,152.163589 219.000000,152.277390 
	C219.000000,155.273102 219.000000,157.914062 219.000000,161.540375 
M250.000000,191.482178 
	C250.000000,178.403809 250.000000,165.325439 250.000000,152.293625 
	C248.066727,152.293625 246.673904,152.293625 245.000000,152.293625 
	C245.000000,167.347610 245.144714,182.115784 244.904541,196.877701 
	C244.839478,200.876999 245.686249,203.518448 250.000000,204.412537 
	C250.000000,200.412033 250.000000,196.442551 250.000000,191.482178 
z"/>
<path fill="#0C4D8A" opacity="1.000000" stroke="none" 
	d="
M284.607666,379.161072 
	C291.969696,377.515411 298.930145,377.082031 305.560211,380.253326 
	C317.497864,385.963287 322.973663,398.192352 319.520294,410.993561 
	C315.681183,425.224731 303.742004,432.564026 287.618500,429.887085 
	C278.115295,428.309326 267.735535,418.351105 267.921082,404.171936 
	C268.077545,392.213104 273.707764,384.260376 284.607666,379.161072 
M284.619354,390.917084 
	C279.589966,395.318176 277.793915,400.743256 278.953796,407.365021 
	C280.065155,413.709961 285.581879,419.666595 292.039612,420.964355 
	C297.029846,421.967194 305.095398,417.719788 307.924591,412.081116 
	C311.036682,405.878693 310.604706,399.093414 306.353455,393.845673 
	C301.926300,388.380798 294.457184,385.321533 284.619354,390.917084 
z"/>
<path fill="#0C4D8A" opacity="1.000000" stroke="none" 
	d="
M149.406769,379.166321 
	C157.184753,382.701508 163.332748,387.546082 165.207275,395.795837 
	C168.618164,410.807037 164.132584,423.896790 147.983566,429.401978 
	C134.997711,433.828766 119.681557,426.516754 115.475212,413.837463 
	C111.062408,400.535858 115.191238,386.008392 129.382477,379.911774 
	C135.815018,377.148346 142.397308,377.652130 149.406769,379.166321 
M130.561218,417.042755 
	C134.352921,420.154175 138.233475,421.788483 143.469437,420.248840 
	C150.956085,418.047424 154.752884,412.920929 155.843445,405.832001 
	C156.772552,399.792419 154.270187,394.593781 149.302582,390.869354 
	C144.791336,387.487152 139.815857,387.120178 134.507965,388.829102 
	C123.396782,392.406433 121.307472,409.462494 130.561218,417.042755 
z"/>
<path fill="#0C4D8A" opacity="1.000000" stroke="none" 
	d="
M107.826630,393.575623 
	C109.693840,402.929840 110.387665,411.790649 105.003479,419.930206 
	C101.233292,425.629822 95.675713,428.326813 89.057343,428.974945 
	C84.314507,429.439392 79.551743,429.873840 74.791954,429.949524 
	C68.302727,430.052765 67.008598,428.640747 67.002594,422.330078 
	C66.992912,412.163849 67.090904,401.995941 66.904427,391.833130 
	C66.875580,390.261536 65.574951,388.713318 64.862473,387.154266 
	C64.311676,387.306213 63.760887,387.458160 63.210098,387.610077 
	C63.210098,384.983093 63.210098,382.356079 63.210098,379.045715 
	C74.191986,379.690887 85.439392,377.000946 96.268791,381.176147 
	C101.813614,383.313934 105.221931,387.903290 107.826630,393.575623 
M77.000000,410.444641 
	C77.001373,412.940430 76.806625,415.459198 77.095253,417.921326 
	C77.220505,418.989746 78.129547,420.517944 79.043411,420.852905 
	C85.053345,423.055786 96.351227,417.162140 97.939590,411.010864 
	C101.399452,397.611786 94.841476,384.411072 77.000000,388.648712 
	C77.000000,395.537262 77.000000,402.499268 77.000000,410.444641 
z"/>
<path fill="#0C4D8A" opacity="1.000000" stroke="none" 
	d="
M360.735779,414.336395 
	C362.543701,416.740814 364.604156,418.628326 365.606812,420.968903 
	C366.724640,423.578217 366.880829,426.599518 367.461060,429.468445 
	C358.469025,430.581299 356.405884,429.532806 352.948364,422.635162 
	C351.929016,420.601562 350.805298,418.612183 349.916351,416.522980 
	C348.139526,412.347168 345.682556,409.510162 340.164154,411.457428 
	C340.164154,417.207214 340.164154,423.304596 340.164154,429.696167 
	C336.681396,429.696167 333.618439,429.696167 330.235016,429.696167 
	C330.235016,416.091431 330.235016,402.484985 330.235016,388.532196 
	C328.478485,388.213593 326.958832,387.937988 325.225098,387.623535 
	C325.225098,385.007874 325.225098,382.387085 325.225098,379.121124 
	C334.494415,379.121124 343.979828,378.388275 353.275604,379.399292 
	C358.745483,379.994263 362.644806,384.774597 363.906464,390.439972 
	C365.468445,397.454132 362.898224,403.489563 357.215454,407.302063 
	C358.301941,409.509552 359.411774,411.764465 360.735779,414.336395 
M342.566803,401.998413 
	C343.896088,401.998901 345.225830,402.022980 346.554535,401.995453 
	C350.433014,401.915100 353.867706,398.665283 353.924622,395.044250 
	C353.985992,391.139709 350.745239,388.073212 346.447754,388.005707 
	C344.366943,387.973022 342.285217,388.000061 340.000031,388.000061 
	C340.000031,391.800995 339.840790,394.953461 340.074799,398.076416 
	C340.174835,399.411469 341.094574,400.685028 342.566803,401.998413 
z"/>
<path fill="#0C4D8A" opacity="1.000000" stroke="none" 
	d="
M176.166397,420.661255 
	C169.812836,410.867279 169.005600,400.903992 174.082611,390.806732 
	C179.298126,380.434052 190.830078,376.591553 201.594528,378.287628 
	C203.483612,378.585297 205.401230,379.003113 207.171082,379.704865 
	C215.684860,383.080597 216.289474,384.235809 215.866821,395.635254 
	C213.165909,395.635254 210.435638,395.635254 207.248352,395.635254 
	C207.434799,391.064789 204.883881,388.492310 200.195129,388.012390 
	C193.560760,387.333313 187.756836,388.680786 184.025375,394.854767 
	C180.441833,400.784027 181.369263,410.603088 185.937241,415.421875 
	C191.867996,421.678253 197.931839,422.722809 205.753586,418.641083 
	C208.154602,417.388123 210.351288,415.743652 212.747101,414.210938 
	C214.437195,416.538544 216.148270,418.895050 217.825073,421.204376 
	C210.849197,431.815643 185.934631,434.908691 176.166397,420.661255 
z"/>
<path fill="#0C4D8A" opacity="1.000000" stroke="none" 
	d="
M391.403442,398.760681 
	C401.194946,401.999237 407.968048,408.095551 407.090973,416.505157 
	C406.493958,422.229309 401.630981,429.229767 395.901825,429.840210 
	C387.102173,430.777771 378.360504,430.467072 372.087372,422.308624 
	C373.922852,419.939667 375.800964,417.515686 377.498657,415.324554 
	C380.624451,417.006866 383.656860,418.756165 386.802887,420.269165 
	C387.922272,420.807495 389.580627,421.332489 390.533661,420.885132 
	C392.702820,419.866760 395.477814,418.617920 396.272919,416.731873 
	C396.797180,415.488312 394.756134,412.309357 393.070709,411.167206 
	C389.635773,408.839508 385.601501,407.418884 381.928436,405.414978 
	C375.251740,401.772430 369.701172,393.966309 375.785461,384.584351 
	C379.278534,379.197998 388.289459,376.290558 396.335205,378.814148 
	C404.390442,381.340668 406.501160,384.500031 405.610870,392.778839 
	C402.694489,392.778839 399.743866,392.778839 396.793274,392.778839 
	C397.004303,392.485596 397.215332,392.192383 397.426392,391.899139 
	C395.436798,390.313293 393.550049,387.637329 391.429718,387.437256 
	C389.147308,387.221954 386.645905,389.327698 384.240051,390.420715 
	C385.213898,392.486328 385.934021,394.737823 387.258972,396.546204 
	C388.024658,397.591278 389.765717,397.921844 391.403442,398.760681 
z"/>
<path fill="#0C4D8A" opacity="1.000000" stroke="none" 
	d="
M229.999603,390.010132 
	C227.248718,391.172943 224.509613,391.880646 222.052032,392.515564 
	C221.404877,391.470825 221.103455,391.207733 221.090530,390.931152 
	C220.533386,379.000153 220.536484,379.000000 232.253204,379.000000 
	C241.065475,379.000000 249.883865,379.200287 258.687958,378.931702 
	C264.867706,378.743195 266.507263,380.190979 266.019897,386.302368 
	C265.888580,387.948914 266.000000,389.614838 266.000000,391.635315 
	C263.157837,391.635315 260.432007,391.635315 257.318207,391.635315 
	C257.138489,390.673950 256.914276,389.474701 256.668488,388.159973 
	C253.862106,388.159973 251.245132,388.159973 248.201004,388.159973 
	C248.201004,401.914581 248.201004,415.632965 248.201004,429.673492 
	C244.731400,429.673492 241.670822,429.673492 238.171341,429.673492 
	C238.171341,416.046356 238.171341,402.329926 238.171341,387.309021 
	C234.999176,388.182129 232.505280,388.868561 229.999603,390.010132 
z"/>
<path fill="#0C4D8A" opacity="1.000000" stroke="none" 
	d="
M215.953079,353.702057 
	C213.775330,354.520203 211.635040,354.869415 208.999924,355.299377 
	C208.999924,345.647736 209.103912,336.713165 208.901871,327.785522 
	C208.866455,326.220520 207.546463,324.684570 206.819748,323.135223 
	C206.280731,323.285492 205.741714,323.435760 205.202698,323.586029 
	C205.202698,321.632080 205.202698,319.678162 205.202698,317.117920 
	C212.152222,317.117920 219.397247,316.115143 226.231293,317.363007 
	C235.485550,319.052765 236.313095,329.377075 232.587326,335.493530 
	C230.912460,338.243073 229.135254,340.098969 231.545502,343.102356 
	C233.116257,345.059662 234.538071,347.136444 236.825317,348.685547 
	C236.825317,350.634491 236.825317,352.583405 236.825317,354.505432 
	C228.748169,355.633087 228.668198,355.590393 225.052307,348.338867 
	C221.459457,341.133545 221.459457,341.133545 215.990555,341.345703 
	C215.990555,345.296631 215.990555,349.264893 215.953079,353.702057 
M222.931076,333.967133 
	C226.587784,332.532928 226.876556,329.253113 225.650665,326.605927 
	C223.667953,322.324402 219.610367,324.255005 216.310059,324.280609 
	C216.310059,327.726929 216.310059,330.787231 216.310059,333.996521 
	C218.428925,333.996521 220.238235,333.996521 222.931076,333.967133 
z"/>
<path fill="#0C4D8A" opacity="1.000000" stroke="none" 
	d="
M243.759857,354.234436 
	C243.429718,344.273834 243.429718,334.642578 243.429718,324.786377 
	C241.757248,324.261108 240.472260,323.857574 239.156265,323.444275 
	C239.156265,321.406097 239.156265,319.457153 239.156265,317.008148 
	C247.247986,317.008148 255.203888,316.809387 263.130737,317.199890 
	C264.483276,317.266541 266.122681,319.669983 266.869965,321.334839 
	C267.491547,322.719574 266.997284,324.605164 266.997284,326.683990 
	C263.948639,326.272766 260.652405,329.088348 258.255219,324.466339 
	C257.713013,323.420898 253.936020,324.053192 251.320587,323.893158 
	C251.320587,326.911591 251.320587,329.648285 251.320587,332.855621 
	C254.964539,332.855621 258.714630,332.855621 262.724213,332.855621 
	C262.724213,335.029236 262.724213,336.759247 262.724213,338.950073 
	C258.947906,338.950073 255.194504,338.950073 251.230347,338.950073 
	C251.230347,341.999603 251.230347,344.614960 251.230347,348.108307 
	C254.575653,346.708008 258.686340,350.768921 261.673065,345.466949 
	C262.208679,344.516113 265.373474,345.046387 267.164154,344.905426 
	C267.539093,345.415436 267.883972,345.666870 267.900208,345.938019 
	C268.442688,354.999695 268.437683,355.049744 259.494202,354.980835 
	C254.358688,354.941254 249.224670,354.709198 243.759857,354.234436 
z"/>
<path fill="#0C4D8A" opacity="1.000000" stroke="none" 
	d="
M186.225800,342.056763 
	C185.381836,346.156403 185.008057,350.211151 184.599625,354.641785 
	C182.453400,354.641785 180.054703,354.641785 177.000000,354.641785 
	C177.000000,346.913116 177.154800,338.982605 176.913422,331.064178 
	C176.832321,328.403992 178.816513,324.886139 174.369064,323.193237 
	C173.625992,322.910400 174.064316,319.523895 173.926132,317.016144 
	C180.991211,317.016144 187.791061,316.645752 194.529465,317.130188 
	C200.192596,317.537323 204.607574,324.054932 203.950043,330.485809 
	C203.119186,338.611908 198.090836,342.890472 192.681580,342.049316 
	C190.731598,341.746094 188.693741,342.007965 186.225800,342.056763 
M185.000702,333.237854 
	C185.409088,334.144257 186.037811,335.875916 186.193115,335.834442 
	C188.904083,335.110626 191.881714,334.631531 194.086288,333.081909 
	C195.196854,332.301300 195.414017,329.398285 195.098343,327.621429 
	C194.486847,324.179321 191.648941,323.739532 188.639648,323.985901 
	C187.549973,324.075073 186.446838,324.000153 185.000046,324.000153 
	C185.000046,327.090363 185.000046,329.698975 185.000702,333.237854 
z"/>
<path fill="#0C4D8A" opacity="1.000000" stroke="none" 
	d="
M282.000000,348.019348 
	C282.000000,350.471710 282.000000,352.447174 282.000000,354.706909 
	C279.331268,354.706909 276.935272,354.706909 274.000000,354.706909 
	C274.000000,346.261261 274.090485,337.820984 273.935486,329.385193 
	C273.897400,327.311951 275.400635,324.477966 271.549652,323.412811 
	C270.835480,323.215302 271.083008,319.541016 270.842773,317.008545 
	C277.984314,317.008545 284.624146,316.680969 291.216125,317.102051 
	C297.616089,317.510864 301.378723,323.328796 300.999664,331.169067 
	C300.701141,337.343597 296.046509,341.945404 290.027069,341.996521 
	C287.551605,342.017548 285.075806,342.000000 282.000000,342.000000 
	C282.000000,344.011719 282.000000,345.777069 282.000000,348.019348 
M282.000000,330.455994 
	C282.000000,332.225830 282.000000,333.995636 282.000000,335.867035 
	C286.285217,336.215729 290.168610,336.094116 292.042572,332.285095 
	C292.827209,330.690155 292.507904,327.070343 291.387512,326.322021 
	C288.894531,324.656982 285.580170,324.221741 282.000000,323.096497 
	C282.000000,326.265869 282.000000,327.893555 282.000000,330.455994 
z"/>
<path fill="#0C4D8A" opacity="1.000000" stroke="none" 
	d="
M180.000427,461.618896 
	C180.000046,463.502289 180.000046,464.977844 180.000046,466.498657 
	C177.189178,467.535309 175.828934,467.134705 175.956329,463.911438 
	C176.132828,459.445190 176.000656,454.966766 176.000656,450.302063 
	C182.200638,448.934631 182.209183,455.532898 185.939636,457.495117 
	C185.939636,455.121765 185.939636,452.874390 185.939636,450.537506 
	C188.642456,449.511749 190.156769,449.643372 190.038300,452.992615 
	C189.880234,457.461670 189.999237,461.940521 189.999237,466.655182 
	C185.352234,467.975250 185.106384,463.478210 182.900482,461.794800 
	C182.260712,461.306519 181.706787,457.189026 180.000427,461.618896 
z"/>
<path fill="#0C4D8A" opacity="1.000000" stroke="none" 
	d="
M287.917664,459.999390 
	C286.013428,460.072571 284.565674,460.145172 283.117889,460.217773 
	C283.016754,460.825928 282.915588,461.434052 282.814453,462.042175 
	C284.578979,462.361481 286.336731,462.892700 288.109619,462.949097 
	C290.590881,463.027954 293.090546,462.745880 291.595612,466.773560 
	C287.594971,466.773560 283.519318,466.773560 279.221405,466.773560 
	C279.221405,461.305603 279.221405,456.028992 279.221405,450.375061 
	C283.171112,450.375061 287.230408,450.375061 291.668152,450.375061 
	C292.354584,452.522491 292.456909,454.227692 289.061218,454.021271 
	C287.069672,453.900177 285.064758,453.999176 283.065857,453.999176 
	C283.061859,454.565247 283.057861,455.131317 283.053864,455.697418 
	C285.521362,455.864044 287.988861,456.030670 292.379578,456.327209 
	C290.425568,458.118408 289.399872,459.058624 287.917664,459.999390 
z"/>
<path fill="#0C4D8A" opacity="1.000000" stroke="none" 
	d="
M250.999451,453.161865 
	C251.002121,455.783508 250.699738,458.003998 251.130951,460.071503 
	C251.357269,461.156525 252.868683,461.973511 253.799744,462.911530 
	C254.530304,462.000854 255.807175,461.137451 255.890762,460.170868 
	C256.160614,457.050262 255.991425,453.891724 255.991425,450.376831 
	C257.638123,450.376831 259.131805,450.376831 261.235077,450.376831 
	C260.941284,454.385925 260.762329,458.280975 260.342468,462.149872 
	C259.919159,466.050476 257.155304,466.862640 253.732300,467.054626 
	C250.206985,467.252380 247.813904,465.715820 247.104370,462.538849 
	C246.230957,458.628204 246.079056,454.556396 245.538986,449.895416 
	C248.284210,450.424255 251.143890,448.399963 250.999451,453.161865 
z"/>
<path fill="#0C4D8A" opacity="1.000000" stroke="none" 
	d="
M195.700195,459.289062 
	C192.548264,457.084503 192.551834,454.355255 194.521255,452.194611 
	C197.916885,448.469330 201.823227,450.054382 205.861816,452.083710 
	C205.254257,453.314087 204.713089,454.410065 204.151138,455.548096 
	C202.087860,455.021301 200.186905,454.535950 198.285934,454.050598 
	C198.106018,454.411377 197.926086,454.772156 197.746170,455.132935 
	C201.368454,457.387451 208.817245,456.889435 205.133972,464.426880 
	C203.702576,467.356079 198.623459,468.145111 194.818100,465.762726 
	C193.853256,465.158630 193.896774,462.943909 193.167831,460.383453 
	C195.624634,461.391174 196.617096,461.855591 197.648590,462.204681 
	C198.626175,462.535522 199.644669,462.745453 200.645172,463.008514 
	C200.820892,462.574860 200.996613,462.141205 201.172333,461.707550 
	C199.455811,460.979065 197.739288,460.250610 195.700195,459.289062 
z"/>
<path fill="#0C4D8A" opacity="1.000000" stroke="none" 
	d="
M150.701843,339.673523 
	C147.615234,340.903351 144.764526,341.802551 141.328156,342.886505 
	C141.328156,338.157471 141.328156,334.430634 141.328156,329.468597 
	C144.365173,330.236908 147.914291,330.231995 149.994446,331.977600 
	C151.387894,333.146851 150.696350,336.800812 150.701843,339.673523 
z"/>
<path fill="#0C4D8A" opacity="1.000000" stroke="none" 
	d="
M235.000504,463.801758 
	C235.000076,460.518005 235.000076,457.703308 235.000076,455.523834 
	C233.275406,453.929504 231.878311,452.638000 230.481216,451.346497 
	C230.757736,450.969635 231.034241,450.592743 231.310760,450.215851 
	C235.390457,450.215851 239.470169,450.215851 245.298553,450.215851 
	C243.309113,452.404572 242.170532,453.657227 241.031952,454.909851 
	C240.694046,454.713379 240.356140,454.516876 240.018234,454.320404 
	C240.018234,458.398163 240.018234,462.475922 240.018234,467.014801 
	C237.682007,466.588440 234.784180,468.589844 235.000504,463.801758 
z"/>
<path fill="#0C4D8A" opacity="1.000000" stroke="none" 
	d="
M331.996704,330.000702 
	C338.192047,330.199188 336.975220,334.520355 336.948669,337.938263 
	C336.924652,341.031738 334.887604,342.031250 332.003479,342.031311 
	C329.122498,342.031372 327.076630,341.040253 327.052094,337.945190 
	C327.024963,334.529510 325.801605,330.206085 331.996704,330.000702 
z"/>
<path fill="#0C4D8A" opacity="1.000000" stroke="none" 
	d="
M272.038574,455.355652 
	C272.004913,458.632812 272.253143,461.483582 271.878723,464.250092 
	C271.722809,465.402344 270.240204,466.375031 269.360870,467.429382 
	C268.943787,467.140717 268.526703,466.852081 268.109619,466.563416 
	C268.109619,462.626678 268.109619,458.689941 268.109619,454.830780 
	C266.585388,453.081055 261.118805,455.600128 263.538116,450.175568 
	C267.723175,450.175568 271.993774,450.175568 276.258179,450.175568 
	C279.440155,455.814575 272.895172,452.812439 272.038574,455.355652 
z"/>
<path fill="#0C4D8A" opacity="1.000000" stroke="none" 
	d="
M216.000000,459.083801 
	C215.988602,461.541168 215.987717,463.528748 215.954849,465.515778 
	C215.949707,465.826050 215.798889,466.133850 215.709259,466.441162 
	C212.024002,466.838867 212.019028,466.838898 212.001846,462.424011 
	C211.991638,459.797699 212.000000,457.171295 212.000000,455.338287 
	C209.790421,453.911163 208.119461,452.831940 206.448517,451.752716 
	C206.713821,451.249207 206.979141,450.745667 207.244461,450.242126 
	C211.652618,450.242126 216.060776,450.242126 220.466843,450.242126 
	C220.795914,453.810455 220.795914,453.810455 216.202271,454.308258 
	C216.136337,455.711823 216.068161,457.162842 216.000000,459.083801 
z"/>
<path fill="#0C4D8A" opacity="1.000000" stroke="none" 
	d="
M124.669991,341.976624 
	C122.197968,341.514282 120.132225,341.033569 118.066483,340.552856 
	C118.058403,340.118774 118.050323,339.684662 118.042252,339.250580 
	C119.247849,338.621552 120.453438,337.992523 121.612328,337.387878 
	C118.318810,336.124512 117.912254,332.998688 119.760666,331.224884 
	C121.036896,330.000183 124.423378,330.974518 126.866821,330.966125 
	C126.655533,332.144073 126.444237,333.322052 126.160324,334.904846 
	C129.192383,337.331177 129.129517,338.492432 124.669991,341.976624 
z"/>
<path fill="#0C4D8A" opacity="1.000000" stroke="none" 
	d="
M113.268089,333.997833 
	C116.573402,335.372009 116.778694,336.338867 114.304001,336.969757 
	C113.678040,337.129303 112.974152,336.958984 112.325508,337.062317 
	C111.892334,337.131287 111.493568,337.416199 110.976044,338.589081 
	C112.391037,338.729095 113.851227,338.705170 115.202126,339.077667 
	C115.887779,339.266724 116.376411,340.170349 116.954117,340.750946 
	C116.382278,341.163971 115.830254,341.896332 115.235077,341.933289 
	C112.969604,342.073883 110.690201,341.989960 108.224052,341.989960 
	C108.224052,337.846527 108.224052,334.124908 108.224052,330.000763 
	C110.388107,330.000763 112.347534,329.867737 114.274971,330.058350 
	C115.201134,330.149963 116.066856,330.852753 116.959961,331.278717 
	C116.041145,331.852234 115.178505,332.571655 114.185997,332.953796 
	C113.369919,333.268005 112.399696,333.181793 110.622459,333.361633 
	C111.949028,333.737335 112.403214,333.865967 113.268089,333.997833 
z"/>
<path fill="#0C4D8A" opacity="1.000000" stroke="none" 
	d="
M324.980164,334.678589 
	C324.091675,336.234161 323.218292,337.398773 322.628418,338.185364 
	C323.608795,339.227692 324.480042,340.154022 326.047913,341.821014 
	C321.990509,341.821014 319.210693,341.821014 314.641327,341.821014 
	C317.071350,338.775879 318.758423,336.661774 320.724396,334.198151 
	C319.105225,334.054596 317.632843,333.924072 316.160492,333.793518 
	C315.961090,333.275360 315.761719,332.757202 315.562317,332.239044 
	C317.105804,331.493744 318.970093,329.817963 320.119904,330.214417 
	C321.990753,330.859375 323.394409,332.859467 324.980164,334.678589 
z"/>
<path fill="#0C4D8A" opacity="1.000000" stroke="none" 
	d="
M172.000000,458.019287 
	C172.000000,461.133728 172.000000,463.767487 172.000000,466.604828 
	C169.320419,467.365814 167.812714,467.257416 167.953659,463.954132 
	C168.143494,459.505157 168.000748,455.041962 168.000748,450.406708 
	C170.716324,449.611572 172.340790,449.772156 172.023453,453.063019 
	C171.880844,454.541870 171.999756,456.045959 172.000000,458.019287 
z"/>
<path fill="#0C4D8A" opacity="1.000000" stroke="none" 
	d="
M224.004272,452.302490 
	C225.003448,451.077606 225.999161,450.321716 227.999023,448.803497 
	C227.999023,454.971161 228.161743,459.593201 227.882568,464.188385 
	C227.814316,465.311859 226.298645,466.347443 225.448456,467.423431 
	C224.965912,467.154449 224.483353,466.885498 224.000793,466.616547 
	C224.000793,462.001526 224.000793,457.386505 224.004272,452.302490 
z"/>
<path fill="#0C4D8A" opacity="1.000000" stroke="none" 
	d="
M130.387726,330.032318 
	C133.470352,330.006500 136.101135,330.006500 138.127319,330.006500 
	C137.311401,334.005951 136.694000,337.685150 135.688324,341.254974 
	C135.538223,341.787781 133.564117,341.806793 132.285660,342.097137 
	C131.424301,338.120728 133.508423,333.758514 129.040802,331.566559 
	C129.339157,331.063751 129.637527,330.560944 130.387726,330.032318 
z"/>
<path fill="#0C4D8A" opacity="1.000000" stroke="none" 
	d="
M348.000061,338.082001 
	C347.987183,336.810089 348.219177,335.876556 347.922394,335.162903 
	C345.793701,330.044037 345.759521,330.058258 351.684204,330.131866 
	C351.684204,333.855560 351.684204,337.591858 351.684204,341.350983 
	C348.434174,341.888489 348.434174,341.888489 348.000061,338.082001 
z"/>
<path fill="#0C4D8A" opacity="1.000000" stroke="none" 
	d="
M339.999969,330.511719 
	C341.408447,330.175446 342.527313,330.124176 343.827576,330.064606 
	C343.827576,334.017059 343.827576,337.754059 343.827576,342.292633 
	C342.634796,341.692749 341.161407,341.281433 341.170197,340.904633 
	C341.249115,337.519501 341.028290,334.301270 338.432465,331.741211 
	C338.858429,331.426392 339.284393,331.111572 339.999969,330.511719 
z"/>
<path fill="#FFFFFF" opacity="1.000000" stroke="none" 
	d="
M214.933533,214.755295 
	C219.626328,220.869019 224.227509,226.606369 228.846466,232.329361 
	C233.316177,237.867477 235.851807,237.645569 240.055557,232.013947 
	C243.771347,227.036011 247.817139,222.288696 251.935898,217.633011 
	C254.526352,214.704926 256.124817,211.759872 256.081970,207.618271 
	C255.892517,189.306000 256.000000,170.990646 256.000000,152.338531 
	C280.583771,152.338531 304.976288,152.338531 329.069122,152.338531 
	C329.069122,165.092377 329.237000,177.940063 329.017395,190.781143 
	C328.833221,201.549622 325.103760,211.561050 320.390228,220.961624 
	C306.551575,248.560928 284.051056,265.894775 254.176895,272.705261 
	C234.344131,277.226562 214.736130,274.722717 196.030472,266.047882 
	C168.233139,253.156799 150.788208,231.559723 142.361694,202.495316 
	C140.701767,196.769913 140.296539,190.565994 140.098297,184.556824 
	C139.747543,173.924744 140.000000,163.272751 140.000000,152.315369 
	C164.297424,152.315369 188.356415,152.315369 213.000000,152.315369 
	C213.000000,155.701874 213.000000,159.142273 213.000000,162.582687 
	C213.000000,177.911728 212.934677,193.241379 213.081772,208.569016 
	C213.100403,210.509048 214.233124,212.438370 214.933533,214.755295 
z"/>
<path fill="#FFFFFF" opacity="1.000000" stroke="none" 
	d="
M251.000061,146.920441 
	C251.000000,145.154343 251.000000,143.850357 251.000000,142.095535 
	C246.979691,142.095535 243.224823,142.095535 239.247208,142.095535 
	C239.247208,140.250977 239.247208,138.856110 239.247208,137.010620 
	C243.095078,137.010620 246.842941,137.010620 250.789505,137.010620 
	C250.789505,133.951706 250.789505,131.335541 250.789505,128.634567 
	C245.583466,126.193214 238.617126,130.439957 233.697952,126.373367 
	C233.839035,125.636711 233.980118,124.900047 234.121201,124.163383 
	C239.545883,124.163383 244.970551,124.163383 250.694901,124.163383 
	C250.694901,121.017784 250.694901,118.289413 250.694901,115.098389 
	C246.979446,115.098389 243.225555,115.098389 239.248077,115.098389 
	C239.248077,113.256813 239.248077,111.862732 239.248077,110.011200 
	C243.091934,110.011200 246.838486,110.011200 250.786713,110.011200 
	C250.786713,105.956711 250.786713,102.341141 250.786713,98.361984 
	C240.147186,98.361984 229.417130,98.361984 218.000000,98.361984 
	C218.000000,100.097282 218.000015,102.017883 218.000000,103.938477 
	C217.999939,118.428246 217.961929,132.918213 218.035400,147.407593 
	C218.048340,149.962265 217.829605,151.814072 214.000000,150.606827 
	C214.000000,146.554230 213.999985,142.272369 214.000000,137.990509 
	C214.000046,124.500038 214.095444,111.008430 213.935455,97.519859 
	C213.893661,93.997131 215.088486,92.760475 218.565231,92.945602 
	C222.853302,93.173927 227.162766,93.000175 231.727951,93.000175 
	C231.727951,82.950508 231.727951,73.224922 231.727951,62.999786 
	C225.192856,62.999786 218.745041,63.131016 212.310394,62.898052 
	C210.884567,62.846432 209.505295,61.508644 208.104584,60.763077 
	C209.496704,60.175461 210.884766,59.088268 212.281555,59.076950 
	C227.436523,58.954182 242.593231,58.953724 257.748169,59.078232 
	C259.135193,59.089630 260.513214,60.195286 261.895416,60.792816 
	C260.484802,61.528477 259.094177,62.850574 257.660126,62.899529 
	C251.015488,63.126362 244.358795,62.999794 237.353760,62.999794 
	C237.353760,72.880508 237.353760,82.608360 237.353760,93.000496 
	C241.787491,93.000496 246.378632,93.075409 250.965668,92.971237 
	C253.548706,92.912582 255.043671,93.550049 255.032166,96.548958 
	C254.963303,114.513252 254.998032,132.477936 254.998032,150.365204 
	C251.289780,152.059906 250.782104,150.160538 251.000061,146.920441 
z"/>
<path fill="#FFFFFF" opacity="1.000000" stroke="none" 
	d="
M238.000000,166.006714 
	C238.000000,176.479645 238.000000,186.454254 238.000000,196.251343 
	C235.610016,196.251343 233.408691,196.251343 231.115295,196.251343 
	C231.115295,181.882065 231.115295,167.269226 231.115295,152.328430 
	C233.279709,152.328430 235.338837,152.328430 238.000000,152.328430 
	C238.000000,156.643860 238.000000,161.076126 238.000000,166.006714 
z"/>
<path fill="#FFFFFF" opacity="1.000000" stroke="none" 
	d="
M247.175049,212.309570 
	C245.002258,215.177994 243.146072,217.843048 241.096909,220.350372 
	C239.255020,222.604080 230.194351,222.929718 228.251465,220.716507 
	C225.694565,217.803818 223.423965,214.639832 220.947586,211.478348 
	C224.243088,209.534363 227.676407,208.152573 230.256668,205.825104 
	C233.523834,202.878036 235.937836,203.389801 238.943481,205.939255 
	C241.587067,208.181641 244.572922,210.020493 247.175049,212.309570 
z"/>
<path fill="#FFFFFF" opacity="1.000000" stroke="none" 
	d="
M219.000000,161.047699 
	C219.000000,157.914062 219.000000,155.273102 219.000000,152.277390 
	C220.614258,152.163589 222.009811,152.065201 224.000000,151.924881 
	C224.000000,158.947525 224.000000,165.709656 224.000000,172.471802 
	C224.000000,180.448593 223.913223,188.426758 224.039047,196.401566 
	C224.096283,200.030075 224.197067,203.447128 219.000000,204.349152 
	C219.000000,190.144257 219.000000,175.842316 219.000000,161.047699 
z"/>
<path fill="#FFFFFF" opacity="1.000000" stroke="none" 
	d="
M250.000000,191.977615 
	C250.000000,196.442551 250.000000,200.412033 250.000000,204.412537 
	C245.686249,203.518448 244.839478,200.876999 244.904541,196.877701 
	C245.144714,182.115784 245.000000,167.347610 245.000000,152.293625 
	C246.673904,152.293625 248.066727,152.293625 250.000000,152.293625 
	C250.000000,165.325439 250.000000,178.403809 250.000000,191.977615 
z"/>
<path fill="#FFFFFF" opacity="1.000000" stroke="none" 
	d="
M284.882324,390.634979 
	C294.457184,385.321533 301.926300,388.380798 306.353455,393.845673 
	C310.604706,399.093414 311.036682,405.878693 307.924591,412.081116 
	C305.095398,417.719788 297.029846,421.967194 292.039612,420.964355 
	C285.581879,419.666595 280.065155,413.709961 278.953796,407.365021 
	C277.793915,400.743256 279.589966,395.318176 284.882324,390.634979 
z"/>
<path fill="#FFFFFF" opacity="1.000000" stroke="none" 
	d="
M130.290497,416.785400 
	C121.307472,409.462494 123.396782,392.406433 134.507965,388.829102 
	C139.815857,387.120178 144.791336,387.487152 149.302582,390.869354 
	C154.270187,394.593781 156.772552,399.792419 155.843445,405.832001 
	C154.752884,412.920929 150.956085,418.047424 143.469437,420.248840 
	C138.233475,421.788483 134.352921,420.154175 130.290497,416.785400 
z"/>
<path fill="#FFFFFF" opacity="1.000000" stroke="none" 
	d="
M77.000000,409.952942 
	C77.000000,402.499268 77.000000,395.537262 77.000000,388.648712 
	C94.841476,384.411072 101.399452,397.611786 97.939590,411.010864 
	C96.351227,417.162140 85.053345,423.055786 79.043411,420.852905 
	C78.129547,420.517944 77.220505,418.989746 77.095253,417.921326 
	C76.806625,415.459198 77.001373,412.940430 77.000000,409.952942 
z"/>
<path fill="#FFFFFF" opacity="1.000000" stroke="none" 
	d="
M342.104309,401.992493 
	C341.094574,400.685028 340.174835,399.411469 340.074799,398.076416 
	C339.840790,394.953461 340.000031,391.800995 340.000031,388.000061 
	C342.285217,388.000061 344.366943,387.973022 346.447754,388.005707 
	C350.745239,388.073212 353.985992,391.139709 353.924622,395.044250 
	C353.867706,398.665283 350.433014,401.915100 346.554535,401.995453 
	C345.225830,402.022980 343.896088,401.998901 342.104309,401.992493 
z"/>
<path fill="#FFFFFF" opacity="1.000000" stroke="none" 
	d="
M222.489304,333.981812 
	C220.238235,333.996521 218.428925,333.996521 216.310059,333.996521 
	C216.310059,330.787231 216.310059,327.726929 216.310059,324.280609 
	C219.610367,324.255005 223.667953,322.324402 225.650665,326.605927 
	C226.876556,329.253113 226.587784,332.532928 222.489304,333.981812 
z"/>
<path fill="#FFFFFF" opacity="1.000000" stroke="none" 
	d="
M185.000366,332.772705 
	C185.000046,329.698975 185.000046,327.090363 185.000046,324.000153 
	C186.446838,324.000153 187.549973,324.075073 188.639648,323.985901 
	C191.648941,323.739532 194.486847,324.179321 195.098343,327.621429 
	C195.414017,329.398285 195.196854,332.301300 194.086288,333.081909 
	C191.881714,334.631531 188.904083,335.110626 186.193115,335.834442 
	C186.037811,335.875916 185.409088,334.144257 185.000366,332.772705 
z"/>
<path fill="#FFFFFF" opacity="1.000000" stroke="none" 
	d="
M282.000000,329.988617 
	C282.000000,327.893555 282.000000,326.265869 282.000000,323.096497 
	C285.580170,324.221741 288.894531,324.656982 291.387512,326.322021 
	C292.507904,327.070343 292.827209,330.690155 292.042572,332.285095 
	C290.168610,336.094116 286.285217,336.215729 282.000000,335.867035 
	C282.000000,333.995636 282.000000,332.225830 282.000000,329.988617 
z"/>
</svg>