<?xml version="1.0" standalone="no"?>
<!DOCTYPE svg PUBLIC "-//W3C//DTD SVG 20010904//EN"
 "http://www.w3.org/TR/2001/REC-SVG-20010904/DTD/svg10.dtd">
<svg version="1.0" xmlns="http://www.w3.org/2000/svg"
 width="468.000000pt" height="534.000000pt" viewBox="0 0 468.000000 534.000000"
 preserveAspectRatio="xMidYMid meet">

<g transform="translate(0.000000,534.000000) scale(0.100000,-0.100000)"
fill="#000000" stroke="none">
<path d="M1380 5187 c-19 -12 -43 -38 -54 -57 -21 -34 -21 -49 -24 -785 -3
-808 2 -926 43 -1071 159 -550 733 -868 1279 -709 327 95 583 339 692 659 54
156 54 164 54 1050 0 916 4 865 -69 913 l-34 23 -927 0 -927 0 -33 -23z m1225
-447 l0 -25 -117 -3 -118 -3 0 -139 0 -140 74 0 c54 0 79 -4 90 -16 14 -13 16
-54 16 -295 l0 -279 373 -2 372 -3 3 -145 c2 -80 -2 -186 -8 -237 -42 -367
-293 -681 -637 -799 -132 -45 -224 -58 -363 -51 -243 12 -438 98 -618 271
-129 124 -222 286 -268 468 -11 44 -18 128 -21 281 l-5 217 371 0 371 0 0 283
c0 207 3 286 12 295 7 7 44 12 95 12 l83 0 0 140 0 140 -114 0 c-89 0 -116 3
-126 15 -10 12 -10 18 0 30 11 13 50 15 274 13 l261 -3 0 -25z"/>
<path d="M2180 4105 l0 -265 30 0 30 0 0 -254 0 -254 -25 -16 c-13 -9 -27 -16
-30 -16 -3 0 -5 119 -5 265 l0 265 -30 0 -30 0 0 -298 0 -298 98 -120 c54 -65
105 -120 114 -122 14 -3 145 146 201 228 15 22 17 59 17 317 l0 293 -30 0 -30
0 0 -265 c0 -146 -3 -265 -8 -265 -4 0 -18 7 -30 16 -22 15 -22 18 -22 270 l0
254 30 0 c29 0 30 2 30 45 l0 45 -60 0 -60 0 0 30 0 30 60 0 60 0 0 35 0 35
-80 0 -80 0 0 30 0 30 80 0 80 0 0 40 0 40 -60 0 c-57 0 -60 1 -60 25 0 24 3
25 60 25 l60 0 0 60 0 60 -155 0 -155 0 0 -265z m198 -500 l2 -230 -45 0 -45
0 0 226 c0 124 3 229 7 233 4 4 23 6 43 4 l35 -3 3 -230z m59 -422 l-42 -53
-61 0 -61 0 -41 52 -41 53 71 46 72 46 72 -46 72 -45 -41 -53z"/>
<path d="M1738 2174 c-16 -15 -8 -52 12 -57 19 -5 20 -14 20 -161 l0 -156 35
0 35 0 0 65 0 65 48 0 c56 0 108 28 122 66 23 61 3 141 -43 165 -25 14 -218
25 -229 13z m190 -70 c15 -10 22 -25 22 -46 0 -44 -25 -68 -72 -68 l-38 0 0
65 0 65 33 0 c18 0 43 -7 55 -16z"/>
<path d="M2050 2150 c0 -20 5 -30 15 -30 13 0 15 -24 15 -160 l0 -160 35 0 35
0 0 70 0 70 30 0 c26 0 33 -7 56 -52 36 -73 52 -88 91 -88 30 0 33 3 33 30 0
19 -5 30 -14 30 -8 0 -27 24 -43 53 l-28 52 23 20 c34 29 40 99 13 142 -25 40
-69 53 -178 53 l-83 0 0 -30z m188 -46 c49 -34 16 -104 -50 -104 l-38 0 0 60
0 60 33 0 c18 0 43 -7 55 -16z"/>
<path d="M2390 2150 c0 -20 5 -30 15 -30 13 0 15 -23 15 -149 0 -115 3 -151
14 -160 9 -8 50 -11 117 -9 l104 3 3 43 c3 41 2 42 -27 42 -21 0 -31 -5 -31
-16 0 -12 -10 -14 -52 -12 l-53 3 -3 48 -3 47 60 0 61 0 0 30 0 30 -61 0 -60
0 3 48 3 47 43 3 c37 3 44 0 49 -17 4 -15 13 -21 34 -21 27 0 29 3 29 40 0 54
-16 60 -149 60 l-111 0 0 -30z"/>
<path d="M2707 2173 c-4 -3 -7 -17 -7 -30 0 -16 6 -23 20 -23 19 0 20 -7 20
-160 l0 -160 35 0 35 0 0 64 0 64 61 4 c55 4 65 8 92 38 27 30 29 38 25 91 -5
68 -24 94 -77 109 -40 11 -194 14 -204 3z m191 -69 c15 -10 22 -25 22 -49 0
-44 -22 -65 -71 -65 l-39 0 0 65 0 65 33 0 c18 0 43 -7 55 -16z"/>
<path d="M1195 2036 c-23 -17 -14 -43 20 -56 32 -12 32 -24 0 -18 -31 6 -42
-7 -17 -21 30 -16 62 -2 62 25 0 17 -8 28 -27 36 l-28 12 28 4 c30 4 36 17 11
26 -22 9 -28 8 -49 -8z"/>
<path d="M3171 2041 c-17 -11 -6 -32 13 -25 28 11 25 -15 -4 -39 -16 -14 -30
-28 -30 -31 0 -3 18 -6 40 -6 22 0 40 5 40 10 0 6 -7 10 -17 10 -15 0 -15 1 0
18 38 41 4 92 -42 63z"/>
<path d="M3280 2030 c-11 -11 -20 -29 -20 -40 0 -21 33 -60 50 -60 17 0 50 39
50 60 0 21 -33 60 -50 60 -5 0 -19 -9 -30 -20z m50 -40 c0 -23 -4 -30 -20 -30
-16 0 -20 7 -20 30 0 23 4 30 20 30 16 0 20 -7 20 -30z"/>
<path d="M3398 2043 c-19 -5 -25 -23 -8 -23 6 0 10 -18 10 -40 0 -29 4 -40 15
-40 11 0 15 12 15 49 0 53 -4 60 -32 54z"/>
<path d="M3465 2040 c-18 -7 -19 -8 -2 -15 12 -5 17 -18 17 -46 0 -21 5 -39
10 -39 6 0 10 25 10 55 0 57 -2 59 -35 45z"/>
<path d="M1070 1990 l0 -50 40 0 c22 0 40 5 40 10 0 6 -11 10 -25 10 -14 0
-25 5 -25 10 0 6 11 10 25 10 14 0 25 5 25 10 0 6 -11 10 -25 10 -14 0 -25 5
-25 10 0 6 11 10 25 10 14 0 25 5 25 10 0 6 -18 10 -40 10 l-40 0 0 -50z"/>
<path d="M1285 2030 c3 -5 13 -10 21 -10 10 0 14 -12 14 -40 0 -22 5 -40 10
-40 6 0 10 18 10 40 0 29 4 40 15 40 8 0 15 5 15 10 0 6 -21 10 -46 10 -27 0
-43 -4 -39 -10z"/>
<path d="M1400 1990 l0 -50 38 0 c45 0 62 14 62 50 0 36 -17 50 -62 50 l-38 0
0 -50z m74 15 c8 -23 -4 -45 -25 -45 -14 0 -19 7 -19 30 0 23 5 30 19 30 10 0
21 -7 25 -15z"/>
<path d="M1345 1560 c-84 -13 -160 -72 -193 -150 -19 -46 -18 -155 2 -202 22
-51 71 -105 120 -131 58 -30 174 -30 231 0 47 25 95 74 121 123 27 52 26 172
-3 226 -54 101 -161 153 -278 134z m133 -107 c49 -36 72 -81 72 -140 0 -97
-55 -163 -143 -171 -65 -5 -104 12 -144 65 -24 31 -28 46 -28 103 0 57 4 72
27 102 15 19 42 42 60 52 42 21 120 16 156 -11z"/>
<path d="M1907 1559 c-80 -13 -157 -77 -187 -154 -17 -44 -14 -155 5 -201 20
-49 68 -100 119 -126 84 -43 214 -30 285 30 l34 28 -23 32 c-23 31 -24 32 -49
15 -53 -35 -77 -43 -127 -43 -160 0 -224 215 -92 313 60 45 188 26 188 -27 0
-24 3 -26 45 -26 43 0 45 1 45 30 0 68 -44 111 -125 125 -22 4 -47 8 -55 10
-8 1 -37 -1 -63 -6z"/>
<path d="M2885 1560 c-84 -13 -160 -72 -193 -150 -19 -45 -19 -155 0 -201 21
-50 74 -106 122 -132 58 -30 174 -30 231 0 47 25 95 74 121 123 27 52 26 172
-3 226 -54 101 -161 153 -278 134z m133 -107 c49 -36 72 -81 72 -140 0 -97
-55 -163 -143 -171 -65 -5 -104 12 -144 65 -24 31 -28 46 -28 103 0 57 4 72
27 102 15 19 42 42 60 52 42 21 120 16 156 -11z"/>
<path d="M3847 1559 c-73 -17 -117 -67 -117 -134 0 -67 26 -94 150 -160 67
-36 75 -43 78 -72 3 -27 -2 -34 -28 -48 -38 -20 -75 -13 -126 21 -20 14 -37
24 -38 22 0 -2 -12 -15 -25 -30 -28 -32 -21 -48 41 -79 144 -73 296 12 267
149 -10 47 -43 78 -124 119 -109 55 -130 84 -83 117 43 30 118 14 118 -24 0
-17 7 -20 40 -20 l40 0 0 40 c0 50 -34 86 -89 96 -20 3 -43 7 -51 9 -8 1 -32
-1 -53 -6z"/>
<path d="M620 1521 c0 -37 2 -41 25 -41 l25 0 0 -205 0 -205 25 -6 c14 -3 69
-4 123 -2 146 6 214 50 247 160 40 136 -8 259 -122 311 -40 17 -72 22 -185 25
l-138 4 0 -41z m280 -63 c57 -30 80 -74 80 -153 0 -107 -57 -165 -162 -165
l-58 0 0 170 0 170 48 0 c30 0 64 -8 92 -22z"/>
<path d="M2223 1553 c-9 -3 -13 -26 -13 -64 l0 -60 38 3 c30 2 38 7 40 26 3
19 9 22 48 22 l44 0 0 -210 0 -210 45 0 45 0 0 210 0 210 45 0 c41 0 45 -2 45
-25 0 -22 4 -25 40 -25 l40 0 0 53 c0 29 -5 58 -12 65 -9 9 -67 12 -202 11
-105 0 -197 -3 -203 -6z"/>
<path d="M3250 1521 c0 -34 3 -41 20 -41 19 0 20 -7 20 -210 l0 -210 45 0 45
0 0 90 0 90 44 0 44 0 37 -72 c52 -100 60 -108 112 -108 l43 0 0 40 c0 33 -3
40 -20 40 -14 0 -29 19 -55 70 -34 67 -34 70 -15 80 51 27 71 147 33 198 -45
61 -63 67 -214 70 l-139 4 0 -41z m257 -63 c16 -15 23 -33 23 -59 0 -53 -37
-81 -99 -77 l-46 3 -3 78 -3 77 52 0 c40 0 58 -5 76 -22z"/>
<path d="M1670 765 c0 -68 2 -75 20 -75 18 0 20 7 20 75 0 68 -2 75 -20 75
-18 0 -20 -7 -20 -75z"/>
<path d="M1750 765 c0 -68 2 -75 19 -75 16 0 20 8 23 43 l3 42 30 -42 c17 -24
38 -43 48 -43 15 0 17 10 17 75 0 60 -3 75 -15 75 -11 0 -15 -11 -15 -40 0
-22 -3 -40 -7 -40 -5 0 -21 18 -37 40 -17 22 -38 40 -48 40 -16 0 -18 -9 -18
-75z"/>
<path d="M1940 825 c-21 -25 -4 -63 32 -73 47 -12 51 -37 5 -29 -38 6 -60 -9
-36 -24 16 -10 60 -12 83 -3 10 4 16 18 16 36 0 24 -6 32 -35 44 -43 18 -47
39 -6 31 20 -4 31 -2 34 8 11 27 -71 36 -93 10z"/>
<path d="M2070 825 c0 -8 9 -15 20 -15 18 0 20 -7 20 -60 0 -53 2 -60 20 -60
18 0 20 7 20 60 0 57 1 60 25 60 16 0 25 6 25 15 0 12 -14 15 -65 15 -51 0
-65 -3 -65 -15z"/>
<path d="M2230 765 c0 -60 3 -75 15 -75 12 0 15 15 15 75 0 60 -3 75 -15 75
-12 0 -15 -15 -15 -75z"/>
<path d="M2300 825 c0 -9 9 -15 25 -15 24 0 25 -3 25 -60 0 -47 3 -60 15 -60
12 0 15 13 15 60 0 57 1 60 25 60 16 0 25 6 25 15 0 12 -14 15 -65 15 -51 0
-65 -3 -65 -15z"/>
<path d="M2460 782 c0 -68 18 -92 68 -92 47 0 62 22 62 91 0 45 -3 59 -15 59
-10 0 -15 -15 -17 -57 -3 -52 -5 -58 -27 -61 -31 -5 -41 12 -41 71 0 35 -4 47
-15 47 -12 0 -15 -13 -15 -58z"/>
<path d="M2620 825 c0 -9 9 -15 25 -15 24 0 25 -3 25 -60 0 -47 3 -60 15 -60
12 0 15 13 15 60 0 57 1 60 25 60 16 0 25 6 25 15 0 12 -14 15 -65 15 -51 0
-65 -3 -65 -15z"/>
<path d="M2790 765 l0 -75 55 0 c42 0 55 3 55 15 0 11 -11 15 -40 15 -29 0
-40 4 -40 15 0 10 11 15 35 15 24 0 35 5 35 15 0 10 -11 15 -35 15 -24 0 -35
5 -35 15 0 11 11 15 40 15 29 0 40 4 40 15 0 12 -13 15 -55 15 l-55 0 0 -75z"/>
</g>
</svg>
